<svg xmlns="http://www.w3.org/2000/svg" width="68.445" height="57.724" viewBox="0 0 68.445 57.724"><circle cx="8.246" cy="8.246" r="8.246" transform="translate(0 21.44)" fill="#162235"/><circle cx="8.246" cy="8.246" r="8.246" transform="translate(37.934)" fill="#162235"/><circle cx="8.246" cy="8.246" r="8.246" transform="translate(37.934 41.231)" fill="#162235"/><path d="M71.5,36.44a8.24,8.24,0,0,0-7.716,5.36H55.633a10.7,10.7,0,0,0-13.912-8.1l-3-4.785a8.2,8.2,0,1,0-3.49,2.194l2.9,4.629a10.707,10.707,0,0,0,.183,16.411l-2.942,4.518a8.272,8.272,0,1,0,3.452,2.254l3.134-4.812a10.722,10.722,0,0,0,13.672-8.185h7.728A8.242,8.242,0,1,0,71.5,36.44ZM45.116,50.459a6.6,6.6,0,1,1,6.6-6.6A6.6,6.6,0,0,1,45.116,50.459Z" transform="translate(-11.306 -15)" fill="#162235"/></svg>