<svg xmlns="http://www.w3.org/2000/svg" xmlns:xlink="http://www.w3.org/1999/xlink" width="117.724" height="117.724" viewBox="0 0 117.724 117.724">
  <defs>
    <filter id="marketing" x="0" y="0" width="117.724" height="117.724" filterUnits="userSpaceOnUse">
      <feOffset dy="10" input="SourceAlpha"/>
      <feGaussianBlur stdDeviation="10" result="blur"/>
      <feFlood flood-color="#33334b" flood-opacity="0"/>
      <feComposite operator="in" in2="blur"/>
      <feComposite in="SourceGraphic"/>
    </filter>
  </defs>
  <g transform="matrix(1, 0, 0, 1, 0, 0)" filter="url(#marketing)">
    <path id="marketing-2" data-name="marketing" d="M62.343,959.5q-.1.016-.188.042a84.916,84.916,0,0,0-40.52,21.988l-1.34-1.34a1.968,1.968,0,0,0-2.827,0l-5.905,5.884a2.011,2.011,0,0,0,0,2.848l23.6,23.58a2.011,2.011,0,0,0,2.827,0l5.905-5.884a2.011,2.011,0,0,0,0-2.848l-1.34-1.34a84.938,84.938,0,0,0,21.988-40.5,2.01,2.01,0,0,0-2.2-2.429Zm-2.555,4.774c-.551,2.085-1.2,4.188-1.947,6.282a11.428,11.428,0,0,1-4.314-4.314c2.089-.751,4.181-1.419,6.261-1.968Zm-10.051,3.455a15.758,15.758,0,0,0,6.617,6.617,82.847,82.847,0,0,1-16.648,25.234L24.5,984.4a83.11,83.11,0,0,1,25.233-16.669Zm-2.618,3.1a6.136,6.136,0,1,0,4.356,1.78,6.13,6.13,0,0,0-4.356-1.78Zm0,3.979a2.167,2.167,0,1,1-1.529.649,2.176,2.176,0,0,1,1.529-.649Zm-28.228,9.633,20.731,20.752-3.057,3.057L15.834,987.5l3.057-3.057ZM15.436,997a2.009,2.009,0,0,0-1.194.607l-5.361,5.361a2.01,2.01,0,1,0,2.848,2.827l5.361-5.361A2.011,2.011,0,0,0,15.436,997Zm3.35,6.031a2.012,2.012,0,0,0-1.194.607L7.542,1013.692a2.01,2.01,0,1,0,2.848,2.827l10.051-10.051a2.01,2.01,0,0,0-1.654-3.434Zm6.031,3.351a2.011,2.011,0,0,0-1.194.607l-5.361,5.361a2.011,2.011,0,1,0,2.848,2.827l5.361-5.361a2.011,2.011,0,0,0-1.654-3.435Z" transform="translate(23.14 -939.48)" fill="#162235"/>
  </g>
</svg>
