<svg xmlns="http://www.w3.org/2000/svg" width="62.952" height="57.008" viewBox="0 0 62.952 57.008">
  <g id="merch" transform="translate(-470.024 -263.496)">
    <g id="cube" transform="translate(470.024 263.496)">
      <path id="Path_3" data-name="Path 3" d="M.972,78.5l6.441,3.1a.582.582,0,0,0,.26.06.6.6,0,0,0,.6-.6V74.232a.6.6,0,0,0-.339-.54L1.492,70.6a.6.6,0,0,0-.858.54v6.828a.6.6,0,0,0,.338.532Z" transform="translate(-0.634 -24.667)" fill="#162235"/>
      <path id="Path_2" data-name="Path 2" d="M3.417,66.523a.6.6,0,0,0,.339.54l5.981,2.883a.6.6,0,0,0,.52,0l5.983-2.875a.6.6,0,0,0,0-1.08L10.258,63.11a.6.6,0,0,0-.519,0L3.757,65.984a.6.6,0,0,0-.34.539Z" transform="translate(-1.46 -22.207)" fill="#162235"/>
      <path id="Path_1" data-name="Path 1" d="M20.836,70.6l-6.443,3.1a.6.6,0,0,0-.339.54v6.835a.6.6,0,0,0,.6.6.587.587,0,0,0,.26-.06l6.442-3.1a.6.6,0,0,0,.339-.539V71.138a.6.6,0,0,0-.858-.54Z" transform="translate(-4.619 -24.667)" fill="#162235"/>
    </g>
    <g id="cube-2" data-name="cube" transform="translate(470.024 263.496)">
      <path id="Path_3-2" data-name="Path 3" d="M34.122,70.6a.6.6,0,0,0-.858.54v6.828a.6.6,0,0,0,.338.539l6.441,3.1a.585.585,0,0,0,.26.06.6.6,0,0,0,.6-.6V74.233a.6.6,0,0,0-.34-.54Z" transform="translate(-10.324 -24.667)" fill="#162235"/>
      <path id="Path_2-2" data-name="Path 2" d="M47.282,81.666a.582.582,0,0,0,.259-.06l6.441-3.1a.6.6,0,0,0,.339-.539v-6.83a.6.6,0,0,0-.857-.54l-6.441,3.1a.6.6,0,0,0-.339.54v6.835a.6.6,0,0,0,.6.6Z" transform="translate(-14.309 -24.667)" fill="#162235"/>
      <path id="Path_1-2" data-name="Path 1" d="M42.628,70a.591.591,0,0,0,.259-.059l5.982-2.875a.6.6,0,0,0,0-1.08L42.888,63.11a.6.6,0,0,0-.519,0l-5.981,2.873a.6.6,0,0,0,0,1.079l5.981,2.883a.577.577,0,0,0,.259.055Z" transform="translate(-11.151 -22.206)" fill="#162235"/>
    </g>
    <g id="cube-3" data-name="cube" transform="translate(470.024 263.496)">
      <path id="Path_3-3" data-name="Path 3" d="M86.951,77.966V71.138a.6.6,0,0,0-.857-.54l-6.442,3.1a.6.6,0,0,0-.34.54v6.835a.6.6,0,0,0,.6.6.585.585,0,0,0,.26-.06l6.442-3.1A.6.6,0,0,0,86.951,77.966Z" transform="translate(-23.999 -24.667)" fill="#162235"/>
      <path id="Path_2-3" data-name="Path 2" d="M75.256,70a.585.585,0,0,0,.259-.059l5.985-2.87a.6.6,0,0,0,0-1.08L75.517,63.11a.6.6,0,0,0-.519,0l-5.982,2.873a.6.6,0,0,0,0,1.079L75,69.945A.585.585,0,0,0,75.256,70Z" transform="translate(-20.84 -22.206)" fill="#162235"/>
      <path id="Path_1-3" data-name="Path 1" d="M66.75,70.6a.6.6,0,0,0-.857.54v6.828a.6.6,0,0,0,.338.539l6.441,3.1a.583.583,0,0,0,.26.06.6.6,0,0,0,.6-.6V74.233a.6.6,0,0,0-.339-.54Z" transform="translate(-20.013 -24.667)" fill="#162235"/>
    </g>
    <path id="Path_360" data-name="Path 360" d="M12.147,31.9a1.5,1.5,0,0,0-1.5,1.5v8.1a1.5,1.5,0,1,0,2.992,0V34.888H33.59v5.9a1.5,1.5,0,1,0,2.992,0v-5.9H56.529V41.5a1.5,1.5,0,1,0,2.992,0V33.391a1.5,1.5,0,0,0-1.5-1.5H36.582V26.224h7.135a1.5,1.5,0,0,0,1.5-1.5V13.935l1.214.857a1.5,1.5,0,1,0,1.726-2.445L35.948,3.732a1.494,1.494,0,0,0-1.725,0l-12.2,8.615a1.5,1.5,0,0,0,1.726,2.445l1.214-.857V24.728a1.5,1.5,0,0,0,1.5,1.5H33.6V31.9H12.147Z" transform="translate(466.415 260.038)" fill="#162235"/>
  </g>
</svg>
