<svg xmlns="http://www.w3.org/2000/svg" width="89.374" height="57.105" viewBox="0 0 89.374 57.105"><path d="M49.513,54.1h-.376L38.6,57.675l10.725,3.669L60.05,57.675Z" transform="translate(-4.638 -21.737)" fill="#162235"/><path d="M52,79.257l11.1-3.763a.625.625,0,0,0,.376-.47V61.1L52,65.051Z" transform="translate(-5.431 -22.152)" fill="#162235"/><path d="M35.8,74.935c0,.188.188.47.376.47l11.1,3.763V65.057L35.8,61.2Z" transform="translate(-4.472 -22.158)" fill="#162235"/><path d="M24.326,64.9H12.943V61.887a1.739,1.739,0,0,0-1.035-1.6,1.922,1.922,0,0,0-1.882.094l-6.774,4.8a1.882,1.882,0,0,0,0,3.01l6.774,4.8a1.973,1.973,0,0,0,1.035.376,2.747,2.747,0,0,0,.847-.188,1.739,1.739,0,0,0,1.035-1.6V68.66H24.326a1.882,1.882,0,1,0,0-3.763Z" transform="translate(-2.5 -22.092)" fill="#162235"/><path d="M95.255,65.177l-6.774-4.8a1.715,1.715,0,0,0-1.882-.094,1.739,1.739,0,0,0-1.035,1.6V64.8H74.182a1.882,1.882,0,1,0,0,3.763H85.565V71.48a1.739,1.739,0,0,0,1.035,1.6,2.747,2.747,0,0,0,.847.188,1.415,1.415,0,0,0,1.035-.376l6.774-4.8a1.964,1.964,0,0,0,.753-1.505A1.786,1.786,0,0,0,95.255,65.177Z" transform="translate(-6.634 -22.089)" fill="#162235"/><path d="M44.784,30.143H47.7V41.526a1.882,1.882,0,1,0,3.763,0V30.143H54.38a1.739,1.739,0,0,0,1.6-1.035,1.909,1.909,0,0,0-.094-1.882l-4.8-6.774a1.882,1.882,0,0,0-3.01,0l-4.8,6.774a1.715,1.715,0,0,0-.094,1.882A1.739,1.739,0,0,0,44.784,30.143Z" transform="translate(-4.895 -19.7)" fill="#162235"/><path d="M25.116,39.584l2.07-2.07a1.96,1.96,0,0,0,.47-1.882,1.72,1.72,0,0,0-1.411-1.223L17.966,33a1.931,1.931,0,0,0-1.6.47,1.669,1.669,0,0,0-.47,1.6l1.411,8.185a1.72,1.72,0,0,0,1.223,1.411,1.193,1.193,0,0,0,.564.094,1.857,1.857,0,0,0,1.317-.564l2.07-2.07,8,8a1.819,1.819,0,0,0,2.634,0,1.819,1.819,0,0,0,0-2.634Z" transform="translate(-3.29 -20.486)" fill="#162235"/><path d="M78.471,44.292a1.857,1.857,0,0,0,1.317.564,1.193,1.193,0,0,0,.564-.094,1.72,1.72,0,0,0,1.223-1.411l1.411-8.185a1.931,1.931,0,0,0-.47-1.6,1.736,1.736,0,0,0-1.6-.47l-8.185,1.411a1.72,1.72,0,0,0-1.411,1.223,1.96,1.96,0,0,0,.47,1.882l2.07,2.07-8,8a1.819,1.819,0,0,0,0,2.634,1.819,1.819,0,0,0,2.634,0l8-8Z" transform="translate(-6.219 -20.49)" fill="#162235"/></svg>