<svg xmlns="http://www.w3.org/2000/svg" width="115.471" height="78.81" viewBox="0 0 115.471 78.81"><path d="M27.275,27.935c.122.122,5.471,12.037,13.374,9.119,4.012-1.581,9.24-3.04,13.253-.851,3.648,1.945,4.5,5.593,4.863,7.538.122.365.122.608.243.73q.182.73.365,1.824L59.5,47.51l.608,2.31c0,.122,0,.122.122.243,3.161.851,6.687,1.824,10.335,2.8,10.578,2.918,22.615,6.2,32.342,7.052,5.35.486,8.511.365,10.335,0-.486-5.593-5.715-7.3-14.833-10.335a53.213,53.213,0,0,1-11.186-5.228,45.459,45.459,0,0,0-5.958,4.5.954.954,0,0,1-1.337,0l-1.216-.973a1.146,1.146,0,0,1-.122-1.581,61.629,61.629,0,0,1,5.35-4.134,37.078,37.078,0,0,1-3.891-3.4,72.561,72.561,0,0,0-5.593,4.863.963.963,0,0,1-1.337.122l-1.337-.851a1.153,1.153,0,0,1-.243-1.581,50.916,50.916,0,0,1,5.958-5.35c-1.216-1.459-2.189-2.8-3.04-4.012a49.061,49.061,0,0,0-6.566,5.836,1.293,1.293,0,0,1-1.459.243l-1.337-.851a.981.981,0,0,1-.243-1.581,54.739,54.739,0,0,1,7.66-6.809h0a8.722,8.722,0,0,0-.851-1.337,5.288,5.288,0,0,1-.486-.851c-.851-1.459-2.067-3.526-4.5-3.891S61.2,23.8,57.306,26.962c-8.633,6.93-18.846-2.8-20.67-4.742-1.7-1.945-3.526-4.62-6.322-4.62-1.459,0-2.918.851-4.255,2.675A14.222,14.222,0,0,0,24.6,22.707a17.117,17.117,0,0,1,2.067,4.255A2.647,2.647,0,0,1,27.275,27.935Z" transform="translate(2.236 -17.6)" fill="#48515e"/><path d="M95.974,57.084a101.3,101.3,0,0,1-13.739-2.31c-6.444-1.459-13.01-3.283-19.21-4.985-2.8-.73-5.471-1.581-8.025-2.189l.608,1.459.73,1.459a35.307,35.307,0,0,0,2.432,4.012l1.094,1.581,1.094,1.337.365.365c7.9,1.945,15.32,3.769,19.7,4.863,2.553.608,15.928,3.283,22.372-1.094a6.761,6.761,0,0,0,3.04-4.5A48.73,48.73,0,0,1,95.974,57.084Z" transform="translate(8.798 -11.124)" fill="#48515e"/><path d="M76.405,73.811a46.908,46.908,0,0,1-9-8.511,65.415,65.415,0,0,0-7.052,2.31,1.106,1.106,0,0,1-1.337-.365l-.73-1.216a1.121,1.121,0,0,1,.486-1.581,53.909,53.909,0,0,1,6.444-2.189,36.307,36.307,0,0,1-2.675-4.5,52.4,52.4,0,0,0-6.809,2.918,1.076,1.076,0,0,1-1.337-.243l-.973-1.216a1.153,1.153,0,0,1,.243-1.581,46.515,46.515,0,0,1,7.3-3.161,35.969,35.969,0,0,1-1.581-4.742c-4.742,1.7-7.052,2.8-8.146,3.526A1.076,1.076,0,0,1,49.9,53.02L48.927,51.8a1.054,1.054,0,0,1,.243-1.581,61.17,61.17,0,0,1,9.484-4.134h0a15.859,15.859,0,0,0-.365-1.581c-.122-.243-.122-.608-.243-.973-.365-1.7-.851-4.012-3.04-5.107-2.189-1.216-5.471-.73-10.213,1.094-10.335,3.891-17.022-8.633-18.116-11.064s-1.824-5.471-4.62-6.322c-1.459-.486-3.04-.122-4.863,1.094A27.814,27.814,0,0,0,11.6,28.946a16.589,16.589,0,0,1,5.107,18.481c7.417,4.742,16.049,10.213,21.4,13.5,3.283,2.067,7.052,4.62,11.064,7.3C58.289,74.3,68.624,81.349,77.5,85.118c4.985,2.189,8.025,3.04,9.848,3.283C88.564,82.93,84.065,79.525,76.405,73.811Z" transform="translate(-0.57 -16.666)" fill="#48515e"/><path d="M10.685,30C8.861,32.553,7.159,35.35,5.7,37.66c1.824,1.216,5.107,3.283,9,5.715A12.385,12.385,0,0,0,10.685,30Z" transform="translate(-1.844 -14.923)" fill="#48515e"/><path d="M65.6,78.272c-5.715-3.4-11.307-7.3-16.657-10.821C45.049,64.776,41.28,62.344,38,60.277,29,54.563,10.4,42.648,4.561,39l-.73,1.216a6.408,6.408,0,0,0-1.094,5.35c.851,3.648,5.593,6.444,14.225,11.551,2.675,1.581,5.593,3.4,9,5.471,5.228,3.283,11.551,7.3,17.508,11.064,7.417,4.742,14.469,9.24,18.481,11.672,2.31,1.337,14.1,8.146,21.521,6.079a7.111,7.111,0,0,0,4.377-3.283A56.169,56.169,0,0,1,78,84.716,121.642,121.642,0,0,1,65.6,78.272Z" transform="translate(-2.529 -12.981)" fill="#48515e"/></svg>