<svg xmlns="http://www.w3.org/2000/svg" width="113.656" height="79.187" viewBox="0 0 113.656 79.187">
  <g id="noun_Food_and_Drink_20649" data-name="noun_Food and Drink_20649" transform="translate(-14.019 -39.993)">
    <g id="Group_310" data-name="Group 310" transform="translate(9.733 22.18)">
      <g id="noun_Tea_3055851" transform="translate(37.105 -145.538) rotate(19)">
        <g id="Group_363" data-name="Group 363" transform="translate(31.551 161.9)">
          <path id="Path_91" data-name="Path 91" d="M44.884,161.9H68.151v4.885a3.574,3.574,0,0,0-3.554,3.56v1.68a3.574,3.574,0,0,0,3.56,3.56h2.028a3.573,3.573,0,0,0,3.56-3.56v-1.68a3.574,3.574,0,0,0-3.554-3.56V161.9h7.121v15.314a13.574,13.574,0,0,1-13.535,13.534H58.419a13.574,13.574,0,0,1-13.535-13.534V161.9ZM31.729,172.264c2.2,3.079,6.334,2.188,8.807,4.692,1.893,1.916,2.781,4.493,2.071,5.755-2.005-1.148-4.635-2.906-5.737-5.18a.594.594,0,0,0-1.068.518c1.149,2.369,3.645,4.169,5.7,5.393l-.015,0c-2.283.353-6.934.121-8.725-3.977A11.735,11.735,0,0,1,31.729,172.264Zm1.743,11.02c2.92,2.406,6.684.474,9.721,2.253,2.324,1.361,3.85,3.62,3.49,5.023-2.234-.59-5.229-1.608-6.882-3.519a.594.594,0,0,0-.9.777c1.723,1.991,4.6,3.084,6.9,3.734l-.013.006c-2.114.932-6.666,1.911-9.457-1.583A11.728,11.728,0,0,1,33.472,183.285Zm36.713-14.461H68.157a1.522,1.522,0,0,0-1.521,1.521v1.68a1.522,1.522,0,0,0,1.521,1.521h2.028a1.522,1.522,0,0,0,1.521-1.521v-1.68a1.522,1.522,0,0,0-1.521-1.521Z" transform="translate(-31.551 -161.9)" fill="#48515e" fill-rule="evenodd"/>
        </g>
      </g>
      <g id="Group_305" data-name="Group 305" transform="translate(52.519 42.137)">
        <g id="Group_304" data-name="Group 304">
          <path id="Path_71" data-name="Path 71" d="M120.594,107.548c.971-.461,3.1-2.229,3.118-2.856s-1.321-.006-1.321-.006c.445-.564,1.054-3.286.537-3.611-.861-.54-3.4,2.275-3.367,2.2s.022-1.088-.4-1.127-2.906,3.526-2.906,3.526a4.425,4.425,0,0,0-.321-1.259c-.188-.541-.5-.244-1.014.789a13.191,13.191,0,0,1-2.945,3.583c-1.316,1.149-3.286,2.108-3.269,1.8a13.368,13.368,0,0,1,2.964-4.755c1.669-1.563,3.9-2.031,4.974-2.577s1.492-.863,1.527-1.151-1.079-.169-1.085-.253.311-.3,1.581-.888-.317-.775-.017-.955a3.115,3.115,0,0,0,1.252-1.722c-.089-.185-1.333-.05-2.132.277s-2.949,1.881-3.007,1.744.781-.667,2.625-2.049a6.114,6.114,0,0,0,2.551-3.386c-.031-.384-2.605.226-2.541.219s2.643-2.467,2.637-2.865-1.174-.229-1.174-.229c.5-.742.795-2.89.336-3.231s-1.907.846-1.907.846-.1-.48-.391-.474-1.186,1.993-1.186,1.993a5.023,5.023,0,0,0-.258-.827c-.222-.589-.389-.593-.932-.07a12.125,12.125,0,0,0-1.314,2.97c-.023-.53-.016-2.4-.874-2.522s-2.045,2.52-2.491,4.7-.479,1.482-.612-.308-.753-2.778-1.129-2.788-.543.635-.758,1.448c-.141.531-.086.725-.41.2-.576-.934-.948-.416-.881.269s.376,2.32.376,2.32a4.246,4.246,0,0,0-1.045-1.421c-.7-.6-1.1-.152-1.006.958s.524,5.6.574,7.606a26.491,26.491,0,0,1-.979,5.667c-.4-2.807-2.529-9.311-3.108-9.361s-.739,1.137-.739,1.137c-.171-.81-.573-1.983-.946-2.109-.2-.066-.608.462-.608.462-.463-.531-1.413-1.473-1.91-1.191s-.3,1.643-.3,1.643c-.7-.284-.8-.093-.535.483a11.4,11.4,0,0,0,1.074,1.595,2.251,2.251,0,0,0-.729-.352c-.607-.224-.871-.485-.722.258a19.843,19.843,0,0,0,1.482,3.059,9.866,9.866,0,0,0-1.7-1.3c-.924-.537-1.891-.956-2.185-.531s.478,2.277.478,2.277l-.819.112s-.473.02,1.1,1.433c.449.4,1.019.871,1.269,1.072a3.818,3.818,0,0,0-.822.022c-1.428.142-1.276.87.249,1.449a39.331,39.331,0,0,1,3.907,1.566,7.475,7.475,0,0,1,2.931,2.524c1.43,1.71,2.56,3.663,1.663,5.956-.713,1.821-1.266,1.979-1.267,1.979a4.846,4.846,0,0,1-3.118,1.128l-.476,1.68a4.188,4.188,0,0,0,2.722-.2c1.423-.875,3.4-1.584,3.88-4.988.6-4.285,6.282-3.88,9.7-3.99s4.657-.519,4.685-.871a1.071,1.071,0,0,0-.153-.618c.576-.265,1.782-.849,1.733-1.782s-4.5-.079-4.5-.079c.229-.1,2.215-.7,4.151-1.584s2.785-1.788,2.768-2.547S120.594,107.548,120.594,107.548Z" transform="translate(-92.645 -88.701)" fill="#48515e" fill-rule="evenodd"/>
        </g>
      </g>
      <g id="Group_307" data-name="Group 307" transform="translate(9.146 61.583)">
        <g id="Group_306" data-name="Group 306" transform="translate(0)">
          <path id="Path_72" data-name="Path 72" d="M110.109,151.265H25.663c-.9,0-1.491,1.017-1.491,1.919a1.634,1.634,0,0,0,1.634,1.633h84.446a1.633,1.633,0,0,0,1.634-1.633A2.028,2.028,0,0,0,110.109,151.265Zm22.713-20.7a5.513,5.513,0,0,0-2.487-3.59,5.835,5.835,0,0,0-1.729-.7c.1-2.375-.609-5.506-3.818-6.576a5.615,5.615,0,0,0-6.716,2.544,6.982,6.982,0,0,0-.754,4.281c-3,1.493-8.738,4.051-11.556,3.968a25.549,25.549,0,0,1-5.5-1.065,29.058,29.058,0,0,0-9.011-1.353c-5.049.253-9.02,2.13-11.8,5.577-4.4,5.447-4.274,12.977-4.267,13.293.022.887.747,1.023,1.634,1.023h30.5c.552,0,1.068.292,1.369-.17.035-.056,3.635-5.552,6.85-7.9a27.4,27.4,0,0,1,6.132-3.285,12.877,12.877,0,0,0,3.622,1.287,6.579,6.579,0,0,0,6.711-2.64A6.186,6.186,0,0,0,132.822,130.569Zm-40.168,4.307c-6.4-.558-8.17,4.208-8.187,4.255a1.636,1.636,0,0,1-1.539,1.083,1.6,1.6,0,0,1-.55-.1,1.633,1.633,0,0,1-.988-2.088c.893-2.492,4.456-7.038,11.551-6.41a1.635,1.635,0,0,1-.286,3.258Zm37.985-.21c-1.267,1.742-3.455,1.681-4.83,1.425a6.921,6.921,0,0,1-3.246-1.9c-.416-.281-.787.081-1.267.238-.082.026-1.2.668-2.692,1.346a4.669,4.669,0,0,1-2.692-2.27,8.968,8.968,0,0,1-.553-4.286c1.6-.732,2.2-1.039,3.28-1.606a1.635,1.635,0,0,0,.808-1.894,3.046,3.046,0,0,1,.172-2.435,3.627,3.627,0,0,1,2.865-1.76c3.642-.317,4.571,3.766,4.485,4.9-.773.262-2.876.939-2.7,1.758.192.882,1.295.338,2.177.155a6.774,6.774,0,0,1,3.167.554,3.877,3.877,0,0,1,1.584,2.387A4.95,4.95,0,0,1,130.638,134.666Z" transform="translate(-24.172 -119.401)" fill="#48515e" fill-rule="evenodd"/>
        </g>
      </g>
      <g id="Group_309" data-name="Group 309" transform="translate(11.834 58.768)">
        <g id="Group_308" data-name="Group 308">
          <path id="Path_73" data-name="Path 73" d="M41.749,128.075a1.386,1.386,0,0,1-1.016-.789c-.34-.934.784-2.2,2.507-2.829s3.4-.383,3.739.55c.312.854-.6,1.985-2.081,2.653,2.961-.4,27.007-3.362,29.179-3.7-6.216-7.954-18.225-9.007-18.225-9.007L28.636,129.61S26.841,130.01,41.749,128.075Zm16.28-11.719a7.244,7.244,0,0,1,5.358.867c1.4,1.139,2.379,2.7-.713,3.778a5.521,5.521,0,0,1-5.534-1.5A1.934,1.934,0,0,1,58.029,116.357ZM28.415,134.7a3.048,3.048,0,0,1,1.016-.084,3.294,3.294,0,0,1,2.891,3.649c-.163,1.861-.722,3.246-2.482,3.091a11.058,11.058,0,0,1-1.2-.122l0,5.176,17.013-.013c.524-1.579,2.977-4.4,5.549-4.177,2.313.2,3.385,2.629,3.914,4.06l16.98.039.4-4.316a3.971,3.971,0,0,1-.865.02A4.436,4.436,0,0,1,72.4,133.2a3.982,3.982,0,0,1,.849.17l.728-8.3L28.54,130.714Zm30.459-.293A4.462,4.462,0,0,1,63.1,139.16a4.691,4.691,0,0,1-4.751,4.222c-2.43,0-4.328-2.565-4.328-4.434C54.017,135.148,57.107,134.409,58.874,134.409Zm-17.812-3.742a3.389,3.389,0,1,1-3.482,3.091A3.3,3.3,0,0,1,41.062,130.667Z" transform="translate(-28.415 -114.956)" fill="#48515e" fill-rule="evenodd"/>
        </g>
      </g>
    </g>
  </g>
</svg>
