<svg xmlns="http://www.w3.org/2000/svg" width="49.081" height="93" viewBox="0 0 49.081 93"><g style="isolation:isolate"><path d="M63.942,79.336,49.99,49.151a6.8,6.8,0,0,1-.651-2.921V30.163h1.446c1.012,0,1.88-1.071,1.88-2.532,0-1.363-.867-2.532-1.88-2.532H30.326c-1.012,0-1.88,1.071-1.88,2.532,0,1.363.867,2.532,1.88,2.532h1.446V46.132a6.494,6.494,0,0,1-.651,2.921L17.242,79.336a13.766,13.766,0,0,0-.217,10.711C18.471,93.455,21,95.5,23.893,95.5H57.219c2.892,0,5.494-2.045,6.868-5.453A13.466,13.466,0,0,0,63.942,79.336ZM34.375,51.78a13.074,13.074,0,0,0,1.157-5.648V30.163H45.652V46.132a14.964,14.964,0,0,0,1.157,5.648L51.8,62.588a16.716,16.716,0,0,1-8.386-1.947,15.273,15.273,0,0,0-12.579-1.168Z" transform="translate(-16.046 -2.5)" fill="#707b8a"/><circle cx="3.8" cy="3.8" r="3.8" transform="translate(15.661 4.7)" fill="#707b8a"/><circle cx="3.1" cy="3.1" r="3.1" transform="translate(25.258)" fill="#707b8a"/><circle cx="4.4" cy="4.4" r="4.4" transform="translate(24.54 10.3)" fill="#707b8a"/></g></svg>