<svg xmlns="http://www.w3.org/2000/svg" width="87.996" height="92.317" viewBox="0 0 87.996 92.317"><path d="M6.723,39.229a1.839,1.839,0,0,0,2.6,0L27.437,21.118a6.26,6.26,0,0,0-2.16-3.046L6.723,36.626A1.806,1.806,0,0,0,6.723,39.229Z" transform="translate(-6.169 6.064)" fill="#48515e"/><path d="M76.693,50.845A1.856,1.856,0,0,0,78,47.688L35.854,5.539a1.839,1.839,0,0,0-2.6,0l-8.622,8.622A6.542,6.542,0,0,0,27.694,16.3l6.85-6.849L75.4,50.292A1.792,1.792,0,0,0,76.693,50.845Z" transform="translate(9.453 -4.999)" fill="#48515e"/><path d="M82.125,91.033V45.947L46.382,10.241,43.926,12.7a5.538,5.538,0,0,1-2.252,10.6,6.525,6.525,0,0,0-6.591,6.591,5.533,5.533,0,0,1-10.6,2.234L10.639,45.966V91.033a1.852,1.852,0,0,0,1.846,1.846H31.944V63.671a1.84,1.84,0,0,1,1.846-1.846H58.973a1.84,1.84,0,0,1,1.846,1.846V92.879H80.279A1.852,1.852,0,0,0,82.125,91.033ZM66.081,44.747a6.873,6.873,0,0,0-6.96,6.96,1.846,1.846,0,0,1-3.692,0,6.884,6.884,0,0,0-6.96-6.96,1.846,1.846,0,0,1,0-3.692,6.9,6.9,0,0,0,6.96-6.979,1.846,1.846,0,1,1,3.692,0,6.888,6.888,0,0,0,6.96,6.979,1.846,1.846,0,0,1,0,3.692Z" transform="translate(-2.386 -0.562)" fill="#48515e"/><path d="M27.293,6.741a1.84,1.84,0,0,0-1.846,1.846,10.186,10.186,0,0,1-10.3,10.284,1.846,1.846,0,0,0,0,3.692,10.186,10.186,0,0,1,10.3,10.284,1.846,1.846,0,0,0,3.692,0A10.182,10.182,0,0,1,39.423,22.563a1.846,1.846,0,0,0,0-3.692A10.182,10.182,0,0,1,29.139,8.587,1.84,1.84,0,0,0,27.293,6.741Z" transform="translate(-0.135 -3.524)" fill="#48515e"/></svg>