<svg xmlns="http://www.w3.org/2000/svg" width="76.366" height="93" viewBox="0 0 76.366 93"><g opacity="0.5"><path d="M57.233,26.765A12.133,12.133,0,1,0,45.1,14.633,12.194,12.194,0,0,0,57.233,26.765Zm0-19.667a1.858,1.858,0,0,1,1.859,1.859,1.925,1.925,0,0,1-1.859,1.859,3.821,3.821,0,0,0-3.816,3.816,1.859,1.859,0,1,1-3.718,0A7.537,7.537,0,0,1,57.233,7.1Z" transform="translate(-11.687 -2.5)" fill="#707b8a"/><path d="M60,41.313A13.013,13.013,0,1,0,73.013,28.3,13.007,13.007,0,0,0,60,41.313ZM73.013,33.29a1.859,1.859,0,1,1,0,3.718,4.28,4.28,0,0,0-4.305,4.305,1.859,1.859,0,1,1-3.718,0A8,8,0,0,1,73.013,33.29Z" transform="translate(-12.008 -3.056)" fill="#707b8a"/><circle cx="7.24" cy="7.24" r="7.24" transform="translate(21.867 23.581)" fill="#707b8a"/><circle cx="5.577" cy="5.577" r="5.577" transform="translate(33.021 40.018)" fill="#707b8a"/><circle cx="7.24" cy="7.24" r="7.24" transform="translate(61.885 8.415)" fill="#707b8a"/><path d="M11.292,84.545a1.738,1.738,0,0,0,.391,2.446l13.4,9.785a1.738,1.738,0,0,0,2.446-.391l5.186-7.143L16.576,77.5Z" transform="translate(-10.951 -4.117)" fill="#707b8a"/><path d="M80.457,59.3,68.422,63.307v.881a7.612,7.612,0,0,1-5.871,7.143l-.783.2a77.546,77.546,0,0,1-13.4,1.859l-3.718.2a2.057,2.057,0,1,1-.2-4.109l3.718-.2a69.835,69.835,0,0,0,12.72-1.761l.783-.2a3.333,3.333,0,0,0,2.642-3.229,3.4,3.4,0,0,0-.978-2.446,3.18,3.18,0,0,0-2.446-1.076l-19.373-.391a10.427,10.427,0,0,0-6.066,1.957L19.5,74.07,36.427,86.4l16.34,1.272a11.608,11.608,0,0,0,7.925-2.446l23.58-19.08a4.052,4.052,0,0,0,1.468-2.838,3.544,3.544,0,0,0-1.174-3.033A3.941,3.941,0,0,0,80.457,59.3Z" transform="translate(-11.135 -3.72)" fill="#707b8a"/></g></svg>