<svg xmlns="http://www.w3.org/2000/svg" width="85.363" height="57.724" viewBox="0 0 85.363 57.724"><path d="M43.786,59.009H28.817a2.155,2.155,0,0,0-2.155,2.157V103.5a2.154,2.154,0,0,0,2.155,2.151h14.97a2.154,2.154,0,0,0,2.155-2.151V61.166A2.156,2.156,0,0,0,43.786,59.009Z" transform="translate(-26.662 -47.926)" fill="#162235"/><path d="M72.29,76.893H57.322a2.155,2.155,0,0,0-2.155,2.158v28.512a2.154,2.154,0,0,0,2.155,2.151h14.97a2.153,2.153,0,0,0,2.155-2.151V79.051A2.156,2.156,0,0,0,72.29,76.893Z" transform="translate(-33.139 -51.989)" fill="#162235"/><path d="M100.8,44.667H85.826a2.155,2.155,0,0,0-2.158,2.152V100.24a2.155,2.155,0,0,0,2.158,2.151H100.8a2.153,2.153,0,0,0,2.151-2.151V46.819A2.152,2.152,0,0,0,100.8,44.667Z" transform="translate(-39.615 -44.667)" fill="#162235"/><path d="M129.3,95.714H114.331a2.154,2.154,0,0,0-2.154,2.152v13.973a2.153,2.153,0,0,0,2.154,2.151H129.3a2.155,2.155,0,0,0,2.157-2.151V97.866A2.154,2.154,0,0,0,129.3,95.714Z" transform="translate(-46.093 -56.266)" fill="#162235"/></svg>